#!OML:ASF E:\id_vita\Project 1\Capture day 1\Session 1\Male1.ASF
:FULLY-SPECIFIED
:DEGREES
1967
root 18.8764 2.78862 4.66244 168.729 78.2685 201.286
lowerback 40.838 2.41976 0.373378
upperback 17.0464 6.55786 2.9013
thorax -0.857922 4.52477 0.586923
lowerneck -17.7336 -2.06944 -0.194002
upperneck -5.68821 -2.15877 4.23666
head 1.227 -0.710559 1.26222
rclavicle 1.66979e-014 1.94809e-014
rhumerus 56.8391 41.8412 11.3426
rradius 54.7489
rwrist -5.48645
rhand -7.87281 -317.613
rfingers 7.12502
rthumb 18.0312 13.2025
lclavicle 1.66979e-014 1.94809e-014
lhumerus -158.767 22.911 -86.5162
lradius 12.1761
lwrist -116.021
lhand -40.384 66.0417
lfingers 7.12502
lthumb -13.338 -95.5949
rfemur -100.572 -21.4258 33.2685
rtibia 92.812
rfoot 8.68915 19.6324
rtoes -20.3774
lfemur -89.2429 8.52355 -37.0637
ltibia 70.2743
lfoot 32.8725 5.4074
ltoes 35.9822
1968
root 18.876 2.78877 4.66331 168.457 78.2332 200.994
lowerback 40.8295 2.40844 0.337647
upperback 17.0234 6.52496 2.88796
thorax -0.881841 4.50453 0.600827
lowerneck -17.6338 -2.10167 -0.228397
upperneck -5.79561 -2.18817 4.25702
head 1.17571 -0.725781 1.27284
rclavicle -1.86858e-014 3.20043e-014
rhumerus 57.0763 41.8762 11.663
rradius 54.8288
rwrist -5.70867
rhand -7.9464 -317.79
rfingers 7.12502
rthumb 17.9604 13.0188
lclavicle -1.86858e-014 3.20043e-014
lhumerus -158.587 23.2303 -86.3195
lradius 12.1051
lwrist -115.649
lhand -40.3747 66.0821
lfingers 7.12502
lthumb -13.329 -95.6358
rfemur -100.606 -21.4456 33.1974
rtibia 92.8277
rfoot 8.74285 19.6361
rtoes -20.4182
lfemur -89.2226 8.46133 -37.0892
ltibia 70.2495
lfoot 32.8624 5.30206
ltoes 35.778
1969
root 18.8758 2.78875 4.66402 168.066 78.1764 200.586
lowerback 40.824 2.38823 0.283475
upperback 17.0008 6.47451 2.86583
thorax -0.906197 4.47528 0.620834
lowerneck -17.5465 -2.12736 -0.288701
upperneck -5.88549 -2.20535 4.31326
head 1.13345 -0.733227 1.30049
rclavicle -9.95911e-014 -1.31198e-014
rhumerus 57.3095 41.9037 11.9636
rradius 54.9054
rwrist -5.88771
rhand -8.0232 -317.882
rfingers 7.12502
rthumb 17.8865 12.9207
lclavicle -9.95911e-014 -1.31198e-014
lhumerus -158.496 23.2765 -86.2847
lradius 12.0717
lwrist -115.577
lhand -40.3532 66.1162
lfingers 7.12502
lthumb -13.3083 -95.6712
rfemur -100.645 -21.4861 33.0906
rtibia 92.8491
rfoot 8.79043 19.6656
rtoes -20.4513
lfemur -89.186 8.3878 -37.1466
ltibia 70.2217
lfoot 32.8512 5.18006
ltoes 35.5574
1970
root 18.8759 2.7886 4.6646 167.66 78.1025 200.17
lowerback 40.8249 2.35397 0.226172
upperback 16.9783 6.40607 2.84017
thorax -0.931798 4.43736 0.644678
lowerneck -17.49 -2.14495 -0.372052
upperneck -5.94631 -2.20944 4.39005
head 1.10676 -0.732641 1.33974
rclavicle -2.75317e-014 4.1546e-014
rhumerus 57.4915 41.9162 12.1456
rradius 54.9414
rwrist -5.96164
rhand -8.08645 -317.888
rfingers 7.12502
rthumb 17.8257 12.9089
lclavicle -2.75317e-014 4.1546e-014
lhumerus -158.474 23.0957 -86.373
lradius 12.073
lwrist -115.739
lhand -40.3273 66.1357
lfingers 7.12502
lthumb -13.2832 -95.6924
rfemur -100.681 -21.5489 32.9744
rtibia 92.8763
rfoot 8.82929 19.6836
rtoes -20.4246
lfemur -89.1393 8.30368 -37.2126
ltibia 70.195
lfoot 32.8457 5.07597
ltoes 35.3663
1971
root 18.8763 2.78856 4.66505 167.345 78.0347 199.848
lowerback 40.8384 2.31354 0.18759
upperback 16.948 6.33602 2.81293
thorax -0.968062 4.39924 0.656755
lowerneck -17.455 -2.1549 -0.445225
upperneck -5.98297 -2.20697 4.45518
head 1.09128 -0.72897 1.37388
rclavicle -1.50082e-014 -5.96354e-015
rhumerus 57.5743 41.9234 12.1439
rradius 54.919
rwrist -5.91285
rhand -8.1094 -317.853
rfingers 7.12502
rthumb 17.8036 12.9423
lclavicle -1.50082e-014 -5.96354e-015
lhumerus -158.454 22.8729 -86.48
lradius 12.0838
lwrist -115.94
lhand -40.3131 66.1481
lfingers 7.12502
lthumb -13.2696 -95.7057
rfemur -100.711 -21.6137 32.8783
rtibia 92.9031
rfoot 8.87168 19.6777
rtoes -20.3265
lfemur -89.097 8.22513 -37.2612
ltibia 70.1733
lfoot 32.8481 5.00436
ltoes 35.2285
